<svg height='300px' width='300px'  fill="#000000" xmlns="http://www.w3.org/2000/svg" viewBox="0 0 16 16" x="0px" y="0px"><g fill="none" fill-rule="evenodd"><path d="m9.706 8l5.941-5.941c.471-.471.471-1.235 0-1.706-.471-.471-1.235-.471-1.706 0l-5.941 5.941-5.941-5.941c-.471-.471-1.235-.471-1.706 0-.471.471-.471 1.235 0 1.706l5.941 5.941-5.941 5.941c-.471.471-.471 1.235 0 1.706.235.236.544.353.853.353.309 0 .617-.118.853-.353l5.941-5.941 5.941 5.941c.236.236.544.353.853.353.309 0 .617-.118.853-.353.471-.471.471-1.235 0-1.706l-5.941-5.941" fill="#000000"></path></g></svg>